<svg xmlns="http://www.w3.org/2000/svg" width="88.254" height="87" viewBox="0 0 88.254 87">
  <g id="Education_Icon" data-name="Education Icon" transform="translate(-667.293 -246)">
    <path id="Path_1" data-name="Path 1" d="M12.91,0c7.13,0,12.91,19.476,12.91,43.5S20.04,87,12.91,87,0,67.524,0,43.5,5.78,0,12.91,0Z" transform="translate(698.51 246)" fill="rgba(241,45,143,0.53)"/>
    <path id="Path_11" data-name="Path 11" d="M12.91,0c7.13,0,12.91,19.476,12.91,43.5S20.04,87,12.91,87,0,67.524,0,43.5,5.78,0,12.91,0Z" transform="translate(742.637 256.569) rotate(60)" fill="rgba(35,0,96,0.67)"/>
    <path id="Path_12" data-name="Path 12" d="M12.91,87c7.13,0,12.91-19.476,12.91-43.5S20.04,0,12.91,0,0,19.476,0,43.5,5.78,87,12.91,87Z" transform="translate(755.547 300.069) rotate(120)" fill="rgba(241,45,143,0.33)"/>
  </g>
</svg>
