<svg xmlns="http://www.w3.org/2000/svg" width="77.318" height="94.008" viewBox="0 0 77.318 94.008">
  <g id="Group_7" data-name="Group 7" transform="translate(-376 -240)">
    <g id="Group_6" data-name="Group 6" transform="translate(-5 -11.329)">
      <path id="Subtraction_3" data-name="Subtraction 3" d="M38.584,94.007h0c-.671,0-3.349-1.52-7.171-4.424A103.632,103.632,0,0,1,18.275,77.566C9.938,68.495,0,54.317,0,38.285c0-.17,0-.34,0-.509A45.246,45.246,0,0,0,38.093,0,45.667,45.667,0,0,0,77.317,37.933v.352A46.6,46.6,0,0,1,71.563,59.9,80.631,80.631,0,0,1,58.748,77.478,110.814,110.814,0,0,1,45.554,89.392,42.619,42.619,0,0,1,38.659,94,.294.294,0,0,1,38.584,94.007Z" transform="translate(381 251.329)" fill="rgba(241,45,143,0.53)"/>
      <path id="Subtraction_7" data-name="Subtraction 7" d="M1.062,94.007h0A3.081,3.081,0,0,1,0,93.631V2.966C.221,1.99.413.992.571,0A45.668,45.668,0,0,0,39.795,37.933v.352A46.6,46.6,0,0,1,34.041,59.9,80.631,80.631,0,0,1,21.226,77.478,110.7,110.7,0,0,1,8.032,89.392,42.623,42.623,0,0,1,1.137,94,.312.312,0,0,1,1.062,94.007Z" transform="translate(418.522 251.329)" fill="rgba(31,0,71,0.65)"/>
    </g>
  </g>
</svg>
