<svg xmlns="http://www.w3.org/2000/svg" width="87" height="85" viewBox="0 0 87 85">
  <g id="Manage_Icon" data-name="Manage Icon" transform="translate(-963.201 -247.2)">
    <line id="Line_4" data-name="Line 4" y1="8" x2="43" transform="translate(975.5 283.5)" fill="none" stroke="rgba(150,121,192,0.7)" stroke-width="2"/>
    <line id="Line_5" data-name="Line 5" x1="21" y1="39" transform="translate(1018.5 283.5)" fill="none" stroke="rgba(150,121,192,0.7)" stroke-width="2"/>
    <line id="Line_6" data-name="Line 6" x1="22" y2="23" transform="translate(1018.5 260.5)" fill="none" stroke="rgba(150,121,192,0.7)" stroke-width="2"/>
    <path id="Path_5" data-name="Path 5" d="M11.021,0A11.021,11.021,0,1,1,0,11.021,11.021,11.021,0,0,1,11.021,0Z" transform="translate(1007.567 272.569)" fill="#a12787"/>
    <path id="Path_8" data-name="Path 8" d="M8.266,0A8.266,8.266,0,1,1,0,8.266,8.266,8.266,0,0,1,8.266,0Z" transform="translate(1031.446 313.899)" fill="#a12687"/>
    <path id="Path_10" data-name="Path 10" d="M5.97,0A5.97,5.97,0,1,1,0,5.97,5.97,5.97,0,0,1,5.97,0Z" transform="translate(1034.201 254.2)" fill="#a12687"/>
    <path id="Path_9" data-name="Path 9" d="M7.5,0A7.5,7.5,0,1,1,0,7.5,7.5,7.5,0,0,1,7.5,0Z" transform="translate(968.074 284.509)" fill="#a12687"/>
    <path id="Path_13" data-name="Path 13" d="M6.5,0A6.5,6.5,0,1,1,0,6.5,6.5,6.5,0,0,1,6.5,0Z" transform="translate(1012.201 273.2)" fill="rgba(46,11,104,0.6)"/>
    <path id="Path_14" data-name="Path 14" d="M6.5,0A6.5,6.5,0,1,1,0,6.5,6.5,6.5,0,0,1,6.5,0Z" transform="translate(963.201 282.2)" fill="rgba(46,11,104,0.6)"/>
    <path id="Path_15" data-name="Path 15" d="M6.5,0A6.5,6.5,0,1,1,0,6.5,6.5,6.5,0,0,1,6.5,0Z" transform="translate(1036.201 247.2)" fill="rgba(46,11,104,0.6)"/>
    <path id="Path_16" data-name="Path 16" d="M6.5,0A6.5,6.5,0,1,1,0,6.5,6.5,6.5,0,0,1,6.5,0Z" transform="translate(1037.201 319.2)" fill="rgba(46,11,104,0.6)"/>
  </g>
</svg>
